<svg xmlns="http://www.w3.org/2000/svg" viewBox="0 0 512 512" width="512" height="512">
  <defs>
    <linearGradient id="bgGrad" x1="0" y1="0" x2="1" y2="1">
      <stop offset="0%" stop-color="#da7756"/>
      <stop offset="100%" stop-color="#c4623e"/>
    </linearGradient>
  </defs>

  <!-- Claude-style warm terracotta background -->
  <rect x="0" y="0" width="512" height="512" rx="96" ry="96" fill="url(#bgGrad)"/>

  <!-- 4 white wave lines -->
  <g fill="none" stroke="#ffffff" stroke-linecap="round">
    <path d="M90,170 Q148,130 206,170 Q264,210 322,170 Q380,130 422,170" stroke-width="16"/>
    <path d="M75,235 Q138,195 201,235 Q264,275 327,235 Q390,195 437,235" stroke-width="18"/>
    <path d="M90,300 Q148,260 206,300 Q264,340 322,300 Q380,260 422,300" stroke-width="20"/>
    <path d="M75,365 Q138,325 201,365 Q264,405 327,365 Q390,325 437,365" stroke-width="22"/>
  </g>
</svg>
